<svg width="80" height="80" viewBox="0 0 80 80" fill="none" xmlns="http://www.w3.org/2000/svg">
<g clip-path="url(#clip0_726_297)">
<path fill-rule="evenodd" clip-rule="evenodd" d="M39.9985 0.996898C17.9116 0.996898 0 18.9055 0 40.9953C0 58.6693 11.4598 73.6575 27.3533 78.949C29.3538 79.3195 30.089 78.0794 30.089 77.0223C30.089 76.0685 30.0491 72.9179 30.0329 69.5783C18.9039 71.9982 16.5579 64.8568 16.5579 64.8568C14.7389 60.2327 12.1167 59.0029 12.1167 59.0029C8.48775 56.518 12.3929 56.5727 12.3929 56.5727C16.4086 56.8533 18.5229 60.6919 18.5229 60.6919C22.0929 66.8072 27.8832 65.0369 30.1642 64.0167C30.5245 61.4315 31.558 59.6658 32.7036 58.6663C23.8186 57.6579 14.479 54.2268 14.479 38.8988C14.479 34.533 16.044 30.9632 18.5996 28.1638C18.1834 27.154 16.8133 23.088 18.985 17.5795C18.985 17.5795 22.3438 16.5033 29.9886 21.6795C33.1776 20.7952 36.5984 20.3493 39.9956 20.3345C43.3956 20.3493 46.8224 20.7937 50.0159 21.6795C57.6504 16.5063 61.0061 17.5795 61.0061 17.5795C63.1809 23.0895 61.8167 27.1584 61.4004 28.1639C63.9649 30.9632 65.5166 34.533 65.5166 38.8988C65.5166 54.2622 56.1562 57.64 47.252 58.6308C48.6871 59.8709 49.9686 62.3055 49.9686 66.0349C49.9686 71.3839 49.9229 75.6949 49.9229 77.0104C49.9229 78.0749 50.6434 79.3195 52.6719 78.9297C68.5564 73.6354 80.0015 58.6454 80.0015 40.9819C80.0015 18.895 62.0929 0.983398 40.0015 0.983398L39.9986 0.996773L39.9985 0.996898Z" fill="#EA5705" fill-opacity="0.75"/>
</g>
<defs>
<clipPath id="clip0_726_297">
<rect width="80" height="80" fill="white"/>
</clipPath>
</defs>
</svg>
